<svg xmlns="http://www.w3.org/2000/svg" viewBox="0 0 136.81 139.99"><defs><style>.a{fill:#80cbc4;}.a,.b,.c,.d,.e,.f{stroke:#000;}.a,.b,.c,.d,.e,.f,.i,.j,.k,.l,.m,.n,.o{stroke-miterlimit:10;}.a,.b,.c,.d,.e,.f,.i,.j,.m,.n,.o{stroke-width:0.25px;}.b,.h,.p{fill:#fff;}.d,.i{fill:#b3b3b3;}.e,.g{fill:#333;}.f{fill:#4d4d4d;}.i,.l{stroke:#999;}.j{fill:#9e9e9e;stroke:#616161;}.k,.l{fill:none;stroke-width:0.5px;}.k{stroke:#666;}.m{fill:#607d8b;stroke:#455a64;}.n{fill:#ff9800;stroke:#f57c00;}.o{fill:#f44336;stroke:#d32f2f;}.p{font-size:2.66px;font-family:YuGothicUI-Bold, Yu Gothic UI;font-weight:700;}.q{letter-spacing:-0.02em;}</style></defs><path class="a" d="M100.92,92.37V210.23a1.62,1.62,0,0,0,1.84,1.84h2.83l4.68,4.67h60.3l4.67-4.67h21l2.8-2.81V92.37a1.63,1.63,0,0,0-1.84-1.84H102.76A1.62,1.62,0,0,0,100.92,92.37Z" transform="translate(-81.21 -76.87)"/><circle class="b" cx="24.38" cy="39.37" r="2.94"/><circle class="b" cx="113.2" cy="41.49" r="2.94"/><circle class="b" cx="85.15" cy="135.07" r="2.94"/><circle class="b" cx="33.73" cy="135.07" r="2.94"/><rect class="c" x="26.37" y="8.24" width="14.69" height="27.33"/><rect class="c" x="24.45" y="8.24" width="18.52" height="5.42"/><rect class="d" x="79.68" y="0.13" width="22.33" height="30.33"/><rect class="d" x="104.9" y="19.24" width="11.78" height="11.78"/><rect class="e" x="78.79" y="45.46" width="9.3" height="9.3"/><rect class="d" x="81.46" y="63.01" width="2.56" height="4.33"/><rect class="d" x="85.75" y="63.01" width="2.56" height="4.33"/><rect class="d" x="96.22" y="62.96" width="2.56" height="4.33"/><rect class="e" x="42.9" y="68.24" width="13" height="65.22"/><rect class="d" x="85.75" y="119.54" width="2.56" height="4.33"/><polygon class="f" points="106.34 45.15 108.34 45.15 109.76 43.74 109.76 41.74 108.34 40.32 106.34 40.32 103.52 40.32 101.52 40.32 100.1 41.74 100.1 43.74 101.52 45.15 103.52 45.15 106.34 45.15"/><circle class="b" cx="107.34" cy="42.74" r="1.5"/><circle class="b" cx="102.52" cy="42.74" r="1.5"/><polygon class="f" points="106.34 49.98 108.34 49.98 109.76 48.57 109.76 46.57 108.34 45.15 106.34 45.15 103.52 45.15 101.52 45.15 100.1 46.57 100.1 48.57 101.52 49.98 103.52 49.98 106.34 49.98"/><circle class="b" cx="107.34" cy="47.57" r="1.5"/><circle class="b" cx="102.52" cy="47.57" r="1.5"/><polygon class="f" points="106.34 54.81 108.34 54.81 109.76 53.4 109.76 51.4 108.34 49.98 106.34 49.98 103.52 49.98 101.52 49.98 100.1 51.4 100.1 53.4 101.52 54.81 103.52 54.81 106.34 54.81"/><circle class="b" cx="107.34" cy="52.4" r="1.5"/><circle class="b" cx="102.52" cy="52.4" r="1.5"/><polygon class="f" points="72.87 135.33 72.87 137.33 74.29 138.74 76.29 138.74 77.7 137.33 77.7 135.33 77.7 132.5 77.7 130.5 76.29 129.09 74.29 129.09 72.87 130.5 72.87 132.5 72.87 135.33"/><circle class="b" cx="75.29" cy="136.33" r="1.5"/><circle class="b" cx="75.29" cy="131.5" r="1.5"/><polygon class="f" points="68.04 135.33 68.04 137.33 69.46 138.74 71.46 138.74 72.87 137.33 72.87 135.33 72.87 132.5 72.87 130.5 71.46 129.09 69.46 129.09 68.04 130.5 68.04 132.5 68.04 135.33"/><circle class="b" cx="70.46" cy="136.33" r="1.5"/><circle class="b" cx="70.46" cy="131.5" r="1.5"/><polygon class="f" points="63.22 135.33 63.22 137.33 64.63 138.74 66.63 138.74 68.04 137.33 68.04 135.33 68.04 132.5 68.04 130.5 66.63 129.09 64.63 129.09 63.22 130.5 63.22 132.5 63.22 135.33"/><circle class="b" cx="65.63" cy="136.33" r="1.5"/><circle class="b" cx="65.63" cy="131.5" r="1.5"/><circle class="b" cx="110.79" cy="25.13" r="3.26"/><rect class="g" x="111.27" y="45.3" width="4.83" height="4.83"/><rect class="h" x="112.68" y="46.71" width="2" height="2"/><rect class="g" x="111.27" y="50.13" width="4.83" height="4.83"/><rect class="h" x="112.68" y="51.54" width="2" height="2"/><rect class="g" x="111.27" y="54.96" width="4.83" height="4.83"/><rect class="h" x="112.68" y="56.37" width="2" height="2"/><rect class="g" x="111.27" y="59.79" width="4.83" height="4.83"/><rect class="h" x="112.68" y="61.2" width="2" height="2"/><rect class="g" x="111.27" y="64.62" width="4.83" height="4.83"/><rect class="h" x="112.68" y="66.03" width="2" height="2"/><rect class="g" x="111.27" y="69.45" width="4.83" height="4.83"/><rect class="h" x="112.68" y="70.86" width="2" height="2"/><rect class="g" x="111.27" y="74.28" width="4.83" height="4.83"/><rect class="h" x="112.68" y="75.69" width="2" height="2"/><rect class="g" x="111.27" y="79.11" width="4.83" height="4.83"/><rect class="h" x="112.68" y="80.52" width="2" height="2"/><rect class="g" x="111.27" y="95.4" width="4.83" height="4.83"/><rect class="h" x="112.68" y="96.82" width="2" height="2"/><rect class="g" x="111.27" y="100.23" width="4.83" height="4.83"/><rect class="h" x="112.68" y="101.65" width="2" height="2"/><rect class="g" x="111.27" y="105.06" width="4.83" height="4.83"/><rect class="h" x="112.68" y="106.48" width="2" height="2"/><rect class="g" x="111.27" y="109.89" width="4.83" height="4.83"/><rect class="h" x="112.68" y="111.31" width="2" height="2"/><rect class="g" x="111.27" y="114.72" width="4.83" height="4.83"/><rect class="h" x="112.68" y="116.14" width="2" height="2"/><rect class="g" x="111.27" y="119.55" width="4.83" height="4.83"/><rect class="h" x="112.68" y="120.97" width="2" height="2"/><rect class="g" x="111.27" y="124.38" width="4.83" height="4.83"/><rect class="h" x="112.68" y="125.8" width="2" height="2"/><rect class="g" x="111.27" y="129.21" width="4.83" height="4.83"/><rect class="h" x="112.68" y="130.63" width="2" height="2"/><rect class="g" x="111.27" y="83.94" width="4.83" height="4.83"/><rect class="h" x="112.68" y="85.35" width="2" height="2"/><rect class="g" x="111.27" y="88.77" width="4.83" height="4.83"/><rect class="h" x="112.68" y="90.18" width="2" height="2"/><rect class="g" x="20.71" y="63.42" width="4.83" height="4.83"/><rect class="h" x="22.13" y="64.83" width="2" height="2"/><rect class="g" x="20.71" y="68.25" width="4.83" height="4.83"/><rect class="h" x="22.13" y="69.66" width="2" height="2"/><rect class="g" x="20.71" y="73.08" width="4.83" height="4.83"/><rect class="h" x="22.13" y="74.49" width="2" height="2"/><rect class="g" x="20.71" y="77.91" width="4.83" height="4.83"/><rect class="h" x="22.13" y="79.32" width="2" height="2"/><rect class="g" x="20.71" y="82.74" width="4.83" height="4.83"/><rect class="h" x="22.13" y="84.15" width="2" height="2"/><rect class="g" x="20.71" y="87.57" width="4.83" height="4.83"/><rect class="h" x="22.13" y="88.98" width="2" height="2"/><rect class="g" x="20.71" y="92.4" width="4.83" height="4.83"/><rect class="h" x="22.13" y="93.81" width="2" height="2"/><rect class="g" x="20.71" y="97.23" width="4.83" height="4.83"/><rect class="h" x="22.13" y="98.64" width="2" height="2"/><rect class="g" x="20.71" y="105.28" width="4.83" height="4.83"/><rect class="h" x="22.13" y="106.7" width="2" height="2"/><rect class="g" x="20.71" y="110.11" width="4.83" height="4.83"/><rect class="h" x="22.13" y="111.53" width="2" height="2"/><rect class="g" x="20.71" y="114.94" width="4.83" height="4.83"/><rect class="h" x="22.13" y="116.36" width="2" height="2"/><rect class="g" x="20.71" y="119.77" width="4.83" height="4.83"/><rect class="h" x="22.13" y="121.19" width="2" height="2"/><rect class="g" x="20.71" y="124.6" width="4.83" height="4.83"/><rect class="h" x="22.13" y="126.02" width="2" height="2"/><rect class="g" x="20.71" y="129.43" width="4.83" height="4.83"/><rect class="h" x="22.13" y="130.85" width="2" height="2"/><circle class="b" cx="96.94" cy="47.57" r="1.5"/><circle class="b" cx="92.11" cy="47.57" r="1.5"/><circle class="b" cx="96.94" cy="52.4" r="1.5"/><circle class="b" cx="92.11" cy="52.4" r="1.5"/><rect class="i" x="67.9" y="65.71" width="4.11" height="2.53"/><rect class="i" x="67.9" y="62.01" width="4.11" height="2.53"/><path class="j" d="M206.39,137.49a1.5,1.5,0,0,0,0,3h10a1.5,1.5,0,0,0,0-3Z" transform="translate(-81.21 -76.87)"/><line class="k" x1="113.68" y1="131.63" x2="123.68" y2="131.63"/><line class="k" x1="113.68" y1="126.8" x2="123.68" y2="126.8"/><line class="k" x1="113.68" y1="121.97" x2="123.68" y2="121.97"/><line class="k" x1="113.68" y1="117.14" x2="123.68" y2="117.14"/><line class="k" x1="113.68" y1="112.31" x2="123.68" y2="112.31"/><line class="k" x1="113.68" y1="107.48" x2="123.68" y2="107.48"/><line class="k" x1="113.68" y1="102.65" x2="123.68" y2="102.65"/><line class="k" x1="113.68" y1="97.82" x2="123.68" y2="97.82"/><line class="k" x1="113.68" y1="47.71" x2="123.68" y2="47.71"/><line class="k" x1="113.68" y1="52.54" x2="123.68" y2="52.54"/><line class="k" x1="113.68" y1="57.37" x2="123.68" y2="57.37"/><line class="k" x1="113.68" y1="62.2" x2="123.68" y2="62.2"/><line class="k" x1="113.68" y1="67.03" x2="123.68" y2="67.03"/><line class="k" x1="113.68" y1="71.86" x2="123.68" y2="71.86"/><line class="k" x1="113.68" y1="76.69" x2="123.68" y2="76.69"/><line class="k" x1="113.68" y1="81.52" x2="123.68" y2="81.52"/><line class="k" x1="113.68" y1="86.35" x2="123.68" y2="86.35"/><line class="k" x1="113.68" y1="91.18" x2="123.68" y2="91.18"/><path class="k" d="M91.33,142.71" transform="translate(-81.21 -76.87)"/><line class="l" x1="23.13" y1="65.83" x2="13.13" y2="65.83"/><line class="l" x1="23.13" y1="70.66" x2="13.13" y2="70.66"/><line class="l" x1="23.13" y1="75.49" x2="13.13" y2="75.49"/><line class="l" x1="23.13" y1="80.32" x2="13.13" y2="80.32"/><line class="l" x1="23.13" y1="85.15" x2="13.13" y2="85.15"/><line class="l" x1="23.13" y1="89.98" x2="13.13" y2="89.98"/><line class="l" x1="23.13" y1="94.81" x2="13.13" y2="94.81"/><line class="l" x1="23.13" y1="99.64" x2="13.13" y2="99.64"/><line class="l" x1="23.13" y1="107.7" x2="13.13" y2="107.7"/><line class="l" x1="23.13" y1="112.53" x2="13.13" y2="112.53"/><line class="l" x1="23.13" y1="117.36" x2="13.13" y2="117.36"/><line class="l" x1="23.13" y1="122.19" x2="13.13" y2="122.19"/><line class="l" x1="23.13" y1="127.02" x2="13.13" y2="127.02"/><line class="l" x1="23.13" y1="131.85" x2="13.13" y2="131.85"/><path class="m" d="M82.83,141.08a1.5,1.5,0,0,0,0,3h10a1.5,1.5,0,1,0,0-3Z" transform="translate(-81.21 -76.87)"/><path class="n" d="M82.83,146a1.5,1.5,0,0,0,0,3h10a1.5,1.5,0,1,0,0-3Z" transform="translate(-81.21 -76.87)"/><path class="n" d="M82.83,150.87a1.5,1.5,0,1,0,0,3h10a1.5,1.5,0,0,0,0-3Z" transform="translate(-81.21 -76.87)"/><path class="o" d="M82.83,155.64a1.5,1.5,0,1,0,0,3h10a1.5,1.5,0,0,0,0-3Z" transform="translate(-81.21 -76.87)"/><path class="o" d="M82.83,160.59a1.5,1.5,0,0,0,0,3h10a1.5,1.5,0,1,0,0-3Z" transform="translate(-81.21 -76.87)"/><path class="j" d="M82.83,165.42a1.5,1.5,0,0,0,0,3h10a1.5,1.5,0,1,0,0-3Z" transform="translate(-81.21 -76.87)"/><path class="j" d="M82.83,170.25a1.5,1.5,0,1,0,0,3h10a1.5,1.5,0,0,0,0-3Z" transform="translate(-81.21 -76.87)"/><path class="o" d="M82.83,175.2a1.5,1.5,0,1,0,0,3h10a1.5,1.5,0,0,0,0-3Z" transform="translate(-81.21 -76.87)"/><path class="n" d="M82.83,183a1.5,1.5,0,0,0,0,3h10a1.5,1.5,0,1,0,0-3Z" transform="translate(-81.21 -76.87)"/><path class="n" d="M82.83,187.81a1.5,1.5,0,1,0,0,3h10a1.5,1.5,0,0,0,0-3Z" transform="translate(-81.21 -76.87)"/><path class="n" d="M82.83,192.76a1.5,1.5,0,1,0,0,3h10a1.5,1.5,0,0,0,0-3Z" transform="translate(-81.21 -76.87)"/><path class="n" d="M82.83,197.59a1.5,1.5,0,0,0,0,3h10a1.5,1.5,0,1,0,0-3Z" transform="translate(-81.21 -76.87)"/><path class="n" d="M82.83,202.42a1.5,1.5,0,0,0,0,3h10a1.5,1.5,0,1,0,0-3Z" transform="translate(-81.21 -76.87)"/><path class="n" d="M82.83,207.25a1.5,1.5,0,1,0,0,3h10a1.5,1.5,0,0,0,0-3Z" transform="translate(-81.21 -76.87)"/><path class="n" d="M206.39,122.94a1.5,1.5,0,0,0,0,3h10a1.5,1.5,0,0,0,0-3Z" transform="translate(-81.21 -76.87)"/><path class="n" d="M206.39,127.9a1.5,1.5,0,0,0,0,3h10a1.5,1.5,0,0,0,0-3Z" transform="translate(-81.21 -76.87)"/><path class="n" d="M206.39,132.73a1.5,1.5,0,0,0,0,3h10a1.5,1.5,0,0,0,0-3Z" transform="translate(-81.21 -76.87)"/><path class="n" d="M206.39,142.45a1.5,1.5,0,0,0,0,3h10a1.5,1.5,0,0,0,0-3Z" transform="translate(-81.21 -76.87)"/><path class="n" d="M206.39,147.28a1.5,1.5,0,0,0,0,3h10a1.5,1.5,0,0,0,0-3Z" transform="translate(-81.21 -76.87)"/><path class="n" d="M206.39,152.11a1.5,1.5,0,0,0,0,3h10a1.5,1.5,0,0,0,0-3Z" transform="translate(-81.21 -76.87)"/><path class="n" d="M206.39,157.06a1.5,1.5,0,0,0,0,3h10a1.5,1.5,0,0,0,0-3Z" transform="translate(-81.21 -76.87)"/><path class="n" d="M206.39,161.67a1.5,1.5,0,0,0,0,3h10a1.5,1.5,0,0,0,0-3Z" transform="translate(-81.21 -76.87)"/><path class="n" d="M206.39,166.62a1.5,1.5,0,0,0,0,3h10a1.5,1.5,0,0,0,0-3Z" transform="translate(-81.21 -76.87)"/><path class="n" d="M206.39,173.15a1.5,1.5,0,0,0,0,3h10a1.5,1.5,0,0,0,0-3Z" transform="translate(-81.21 -76.87)"/><path class="n" d="M206.39,177.92a1.5,1.5,0,0,0,0,3h10a1.5,1.5,0,0,0,0-3Z" transform="translate(-81.21 -76.87)"/><path class="n" d="M206.39,182.87a1.5,1.5,0,0,0,0,3h10a1.5,1.5,0,0,0,0-3Z" transform="translate(-81.21 -76.87)"/><path class="n" d="M206.39,187.7a1.5,1.5,0,0,0,0,3h10a1.5,1.5,0,0,0,0-3Z" transform="translate(-81.21 -76.87)"/><path class="n" d="M206.39,192.53a1.5,1.5,0,0,0,0,3h10a1.5,1.5,0,0,0,0-3Z" transform="translate(-81.21 -76.87)"/><path class="n" d="M206.39,197.49a1.5,1.5,0,0,0,0,3h10a1.5,1.5,0,0,0,0-3Z" transform="translate(-81.21 -76.87)"/><path class="n" d="M206.39,202.09a1.5,1.5,0,0,0,0,3h10a1.5,1.5,0,0,0,0-3Z" transform="translate(-81.21 -76.87)"/><path class="n" d="M206.39,207.05a1.5,1.5,0,0,0,0,3h10a1.5,1.5,0,0,0,0-3Z" transform="translate(-81.21 -76.87)"/><text class="p" transform="translate(4.78 66.63)">NC</text><text class="p" transform="translate(3.04 71.52)">IOREF</text><text class="p" transform="translate(2.96 76.4)">RESET</text><text class="p" transform="translate(3.37 81.29)">+3V3</text><text class="p" transform="translate(4.11 86.18)">+5V</text><text class="p" transform="translate(3.72 91.07)">GND</text><text class="p" transform="translate(3.72 95.96)">GND</text><text class="p" transform="translate(4.36 100.85)">VIN</text><text class="p" transform="translate(1.45 108.56)">A0 / D14</text><text class="p" transform="translate(1.68 113.41)">A1 / D15</text><text class="p" transform="translate(1.47 118.27)">A2 / D16</text><text class="p" transform="translate(1.5 123.13)">A3 / D17</text><text class="p" transform="translate(1.45 127.99)">A4 / D18</text><text class="p" transform="translate(1.47 132.85)">A5 / D19</text><text class="p" transform="translate(124.46 48.46)">D19 / SCL</text><text class="p" transform="translate(124.11 53.32)">D18 / S<tspan class="q" x="8.48" y="0">D</tspan><tspan x="10.35" y="0">A</tspan></text><text class="p" transform="translate(127.1 58.18)">AREF</text><text class="p" transform="translate(127.28 63.03)">GND</text><text class="p" transform="translate(127.95 67.89)">D13</text><text class="p" transform="translate(127.95 72.75)">D12</text><text class="p" transform="translate(128.15 77.6)">D11</text><text class="p" transform="translate(127.95 82.46)">D10</text><text class="p" transform="translate(128.48 87.32)">D9</text><text class="p" transform="translate(128.49 92.17)">D8</text><text class="p" transform="translate(128.51 98.69)">D7</text><text class="p" transform="translate(128.48 103.54)">D6</text><text class="p" transform="translate(128.49 108.39)">D5</text><text class="p" transform="translate(128.46 113.23)">D4</text><text class="p" transform="translate(128.49 118.08)">D3</text><text class="p" transform="translate(128.49 122.93)">D2</text><text class="p" transform="translate(125.85 127.78)">D1 / TX</text><text class="p" transform="translate(125.55 132.62)">D0 / RX</text><text class="p" transform="translate(126.66 118.08)">~</text><text class="p" transform="translate(126.66 108.39)">~</text><text class="p" transform="translate(126.66 103.54)">~</text><text class="p" transform="translate(125.95 82.52)">~</text><text class="p" transform="translate(125.95 77.6)">~</text><text class="p" transform="translate(126.66 87.32)">~</text></svg>